<svg width="24" height="24" viewBox="0 0 24 24" fill="none" xmlns="http://www.w3.org/2000/svg">
<g id="trash">
<path id="Vector" d="M20.1 4.66667H17.31C17.1011 3.63213 16.5484 2.70257 15.7451 2.03466C14.9418 1.36675 13.937 1.00133 12.9 1L11.1 1C10.063 1.00133 9.05819 1.36675 8.25487 2.03466C7.45156 2.70257 6.89889 3.63213 6.69 4.66667H3.9C3.66131 4.66667 3.43239 4.76324 3.2636 4.93515C3.09482 5.10706 3 5.34022 3 5.58333C3 5.82645 3.09482 6.05961 3.2636 6.23151C3.43239 6.40342 3.66131 6.5 3.9 6.5H4.8V18.4167C4.80143 19.6318 5.27599 20.7967 6.1196 21.656C6.9632 22.5152 8.10696 22.9985 9.3 23H14.7C15.893 22.9985 17.0368 22.5152 17.8804 21.656C18.724 20.7967 19.1986 19.6318 19.2 18.4167V6.5H20.1C20.3387 6.5 20.5676 6.40342 20.7364 6.23151C20.9052 6.05961 21 5.82645 21 5.58333C21 5.34022 20.9052 5.10706 20.7364 4.93515C20.5676 4.76324 20.3387 4.66667 20.1 4.66667ZM11.1 2.83333H12.9C13.4582 2.83403 14.0026 3.01059 14.4585 3.33882C14.9143 3.66705 15.2593 4.13087 15.4461 4.66667H8.5539C8.74072 4.13087 9.08571 3.66705 9.54155 3.33882C9.99739 3.01059 10.5418 2.83403 11.1 2.83333ZM17.4 18.4167C17.4 19.146 17.1155 19.8455 16.6092 20.3612C16.1028 20.8769 15.4161 21.1667 14.7 21.1667H9.3C8.58392 21.1667 7.89716 20.8769 7.39081 20.3612C6.88446 19.8455 6.6 19.146 6.6 18.4167V6.5H17.4V18.4167Z" fill="black"/>
<path id="Vector_2" d="M10 17C10.2652 17 10.5196 16.921 10.7071 16.7803C10.8946 16.6397 11 16.4489 11 16.25V11.75C11 11.5511 10.8946 11.3603 10.7071 11.2197C10.5196 11.079 10.2652 11 10 11C9.73478 11 9.48043 11.079 9.29289 11.2197C9.10536 11.3603 9 11.5511 9 11.75V16.25C9 16.4489 9.10536 16.6397 9.29289 16.7803C9.48043 16.921 9.73478 17 10 17Z" fill="black"/>
<path id="Vector_3" d="M14 17C14.2652 17 14.5196 16.921 14.7071 16.7803C14.8946 16.6397 15 16.4489 15 16.25V11.75C15 11.5511 14.8946 11.3603 14.7071 11.2197C14.5196 11.079 14.2652 11 14 11C13.7348 11 13.4804 11.079 13.2929 11.2197C13.1054 11.3603 13 11.5511 13 11.75V16.25C13 16.4489 13.1054 16.6397 13.2929 16.7803C13.4804 16.921 13.7348 17 14 17Z" fill="black"/>
</g>
</svg>
