<svg width="24" height="24" viewBox="0 0 24 24" fill="none" xmlns="http://www.w3.org/2000/svg">
<g id="icons">
<path id="Vector" d="M9.2 2H2.8C2.35817 2 2 2.89543 2 4V8C2 9.10457 2.35817 10 2.8 10H9.2C9.64183 10 10 9.10457 10 8V4C10 2.89543 9.64183 2 9.2 2Z" stroke="black" stroke-width="2" stroke-linecap="round" stroke-linejoin="round"/>
<path id="Vector_2" d="M21.2 2H14.8C14.3582 2 14 2.89543 14 4V8C14 9.10457 14.3582 10 14.8 10H21.2C21.6418 10 22 9.10457 22 8V4C22 2.89543 21.6418 2 21.2 2Z" stroke="black" stroke-width="2" stroke-linecap="round" stroke-linejoin="round"/>
<path id="Vector_3" d="M21.2 14H14.8C14.3582 14 14 14.8954 14 16V20C14 21.1046 14.3582 22 14.8 22H21.2C21.6418 22 22 21.1046 22 20V16C22 14.8954 21.6418 14 21.2 14Z" stroke="black" stroke-width="2" stroke-linecap="round" stroke-linejoin="round"/>
<path id="Vector_4" d="M9.2 14H2.8C2.35817 14 2 14.8954 2 16V20C2 21.1046 2.35817 22 2.8 22H9.2C9.64183 22 10 21.1046 10 20V16C10 14.8954 9.64183 14 9.2 14Z" stroke="black" stroke-width="2" stroke-linecap="round" stroke-linejoin="round"/>
</g>
</svg>
